<mxfile host="65bd71144e">
    <diagram id="RG-XyaWJOa1s0WnhwVvv" name="Page-1">
        <mxGraphModel dx="214" dy="456" grid="1" gridSize="10" guides="1" tooltips="1" connect="1" arrows="1" fold="1" page="1" pageScale="1" pageWidth="850" pageHeight="1100" math="0" shadow="0">
            <root>
                <mxCell id="0"/>
                <mxCell id="1" parent="0"/>
                <mxCell id="2" value="" style="rounded=0;whiteSpace=wrap;html=1;" parent="1" vertex="1">
                    <mxGeometry x="170" y="90" width="140" height="320" as="geometry"/>
                </mxCell>
                <mxCell id="3" value="" style="endArrow=none;html=1;entryX=-0.025;entryY=0.209;entryDx=0;entryDy=0;entryPerimeter=0;exitX=1.011;exitY=0.209;exitDx=0;exitDy=0;exitPerimeter=0;" parent="1" source="2" target="2" edge="1">
                    <mxGeometry width="50" height="50" relative="1" as="geometry">
                        <mxPoint x="400" y="220" as="sourcePoint"/>
                        <mxPoint x="640" y="230" as="targetPoint"/>
                    </mxGeometry>
                </mxCell>
                <mxCell id="4" value="" style="rounded=0;whiteSpace=wrap;html=1;" parent="1" vertex="1">
                    <mxGeometry x="333.5" y="90" width="140" height="320" as="geometry"/>
                </mxCell>
                <mxCell id="5" value="" style="endArrow=none;html=1;entryX=-0.025;entryY=0.209;entryDx=0;entryDy=0;entryPerimeter=0;exitX=1.011;exitY=0.209;exitDx=0;exitDy=0;exitPerimeter=0;" parent="1" source="4" target="4" edge="1">
                    <mxGeometry width="50" height="50" relative="1" as="geometry">
                        <mxPoint x="583.5" y="220" as="sourcePoint"/>
                        <mxPoint x="823.5" y="230" as="targetPoint"/>
                    </mxGeometry>
                </mxCell>
                <mxCell id="6" value="" style="rounded=0;whiteSpace=wrap;html=1;" parent="1" vertex="1">
                    <mxGeometry x="503.5" y="90" width="140" height="320" as="geometry"/>
                </mxCell>
                <mxCell id="7" value="" style="endArrow=none;html=1;entryX=-0.025;entryY=0.209;entryDx=0;entryDy=0;entryPerimeter=0;exitX=1.011;exitY=0.209;exitDx=0;exitDy=0;exitPerimeter=0;" parent="1" source="6" target="6" edge="1">
                    <mxGeometry width="50" height="50" relative="1" as="geometry">
                        <mxPoint x="753.5" y="220" as="sourcePoint"/>
                        <mxPoint x="993.5" y="230" as="targetPoint"/>
                    </mxGeometry>
                </mxCell>
                <mxCell id="8" value="" style="rounded=0;whiteSpace=wrap;html=1;" parent="1" vertex="1">
                    <mxGeometry x="658.5" y="90" width="140" height="320" as="geometry"/>
                </mxCell>
                <mxCell id="9" value="" style="endArrow=none;html=1;entryX=-0.025;entryY=0.209;entryDx=0;entryDy=0;entryPerimeter=0;exitX=1.011;exitY=0.209;exitDx=0;exitDy=0;exitPerimeter=0;" parent="1" source="8" target="8" edge="1">
                    <mxGeometry width="50" height="50" relative="1" as="geometry">
                        <mxPoint x="908.5" y="220" as="sourcePoint"/>
                        <mxPoint x="1148.5" y="230" as="targetPoint"/>
                    </mxGeometry>
                </mxCell>
                <mxCell id="10" value="names(strings)" style="text;html=1;align=center;verticalAlign=middle;resizable=0;points=[];autosize=1;strokeColor=none;fillColor=none;" parent="1" vertex="1">
                    <mxGeometry x="90" y="35" width="100" height="30" as="geometry"/>
                </mxCell>
                <mxCell id="11" value="ages(int)" style="text;html=1;align=center;verticalAlign=middle;resizable=0;points=[];autosize=1;strokeColor=none;fillColor=none;" parent="1" vertex="1">
                    <mxGeometry x="275" y="35" width="70" height="30" as="geometry"/>
                </mxCell>
                <mxCell id="12" value="salaries(int)" style="text;html=1;align=center;verticalAlign=middle;resizable=0;points=[];autosize=1;strokeColor=none;fillColor=none;" parent="1" vertex="1">
                    <mxGeometry x="445" y="35" width="90" height="30" as="geometry"/>
                </mxCell>
                <mxCell id="13" value="genders(char)" style="text;html=1;align=center;verticalAlign=middle;resizable=0;points=[];autosize=1;strokeColor=none;fillColor=none;" parent="1" vertex="1">
                    <mxGeometry x="620" y="30" width="100" height="30" as="geometry"/>
                </mxCell>
                <mxCell id="14" value="" style="rounded=0;whiteSpace=wrap;html=1;" parent="1" vertex="1">
                    <mxGeometry x="193.5" y="520" width="140" height="320" as="geometry"/>
                </mxCell>
                <mxCell id="15" value="" style="endArrow=none;html=1;entryX=-0.025;entryY=0.209;entryDx=0;entryDy=0;entryPerimeter=0;exitX=1.011;exitY=0.209;exitDx=0;exitDy=0;exitPerimeter=0;" parent="1" source="14" target="14" edge="1">
                    <mxGeometry width="50" height="50" relative="1" as="geometry">
                        <mxPoint x="443.5" y="650" as="sourcePoint"/>
                        <mxPoint x="683.5" y="660" as="targetPoint"/>
                    </mxGeometry>
                </mxCell>
                <mxCell id="16" value="&quot;deleted&quot;" style="text;html=1;strokeColor=none;fillColor=none;align=center;verticalAlign=middle;whiteSpace=wrap;rounded=0;" parent="1" vertex="1">
                    <mxGeometry x="220" y="540" width="60" height="30" as="geometry"/>
                </mxCell>
                <mxCell id="17" value="names(string)" style="text;html=1;align=center;verticalAlign=middle;resizable=0;points=[];autosize=1;strokeColor=none;fillColor=none;" parent="1" vertex="1">
                    <mxGeometry x="100" y="495" width="100" height="30" as="geometry"/>
                </mxCell>
                <mxCell id="18" value="deletion hear is a lazy process" style="text;html=1;align=center;verticalAlign=middle;resizable=0;points=[];autosize=1;strokeColor=none;fillColor=none;" parent="1" vertex="1">
                    <mxGeometry x="80" y="460" width="180" height="30" as="geometry"/>
                </mxCell>
                <mxCell id="19" value="userInput" style="rounded=0;whiteSpace=wrap;html=1;" parent="1" vertex="1">
                    <mxGeometry x="433.5" y="510" width="120" height="60" as="geometry"/>
                </mxCell>
                <mxCell id="20" value="updatedSalary" style="rounded=0;whiteSpace=wrap;html=1;" parent="1" vertex="1">
                    <mxGeometry x="585" y="510" width="120" height="60" as="geometry"/>
                </mxCell>
                <mxCell id="21" value="start_age" style="rounded=0;whiteSpace=wrap;html=1;" parent="1" vertex="1">
                    <mxGeometry x="433.5" y="600" width="120" height="60" as="geometry"/>
                </mxCell>
                <mxCell id="22" value="end_age" style="rounded=0;whiteSpace=wrap;html=1;" parent="1" vertex="1">
                    <mxGeometry x="590" y="600" width="120" height="60" as="geometry"/>
                </mxCell>
                <mxCell id="23" value="currNumOfEmployess" style="rounded=0;whiteSpace=wrap;html=1;" parent="1" vertex="1">
                    <mxGeometry x="433.5" y="680" width="156.5" height="60" as="geometry"/>
                </mxCell>
                <mxCell id="24" value="size is fixed&lt;br&gt;as num of array elements" style="text;html=1;align=center;verticalAlign=middle;resizable=0;points=[];autosize=1;strokeColor=none;fillColor=none;" parent="1" vertex="1">
                    <mxGeometry x="10" y="360" width="160" height="40" as="geometry"/>
                </mxCell>
                <mxCell id="25" value="Bugs and disadvantages" style="text;html=1;align=center;verticalAlign=middle;resizable=0;points=[];autosize=1;strokeColor=none;fillColor=none;" vertex="1" parent="1">
                    <mxGeometry x="50" y="890" width="150" height="30" as="geometry"/>
                </mxCell>
                <mxCell id="26" value="assume one entered the deleted keyword in the name&lt;br&gt;bad memory&amp;nbsp;time&lt;br&gt;difficult in maintanince" style="text;html=1;align=center;verticalAlign=middle;resizable=0;points=[];autosize=1;strokeColor=none;fillColor=none;" vertex="1" parent="1">
                    <mxGeometry x="15" y="940" width="310" height="60" as="geometry"/>
                </mxCell>
            </root>
        </mxGraphModel>
    </diagram>
</mxfile>